<?xml version="1.0" standalone="no"?>
<!DOCTYPE svg PUBLIC "-//W3C//DTD SVG 20010904//EN"
 "http://www.w3.org/TR/2001/REC-SVG-20010904/DTD/svg10.dtd">
<svg version="1.0" xmlns="http://www.w3.org/2000/svg"
 width="700.000000pt" height="700.000000pt" viewBox="0 0 700.000000 700.000000"
 preserveAspectRatio="xMidYMid meet">
<metadata>
Created by potrace 1.11, written by Peter Selinger 2001-2013
</metadata>
<g transform="translate(0.000000,700.000000) scale(0.100000,-0.100000)"
fill="#000000" stroke="none">
<path d="M4625 6880 c-918 -33 -1469 -80 -1519 -130 -6 -6 5 -201 28 -497 48
-645 54 -732 67 -1114 24 -702 -22 -1351 -137 -1934 -34 -170 -39 -186 -96
-295 -197 -379 -443 -648 -713 -782 -184 -92 -372 -127 -755 -143 -205 -9
-363 -28 -483 -59 -116 -30 -284 -107 -346 -160 -132 -111 -227 -317 -250
-542 -8 -77 -1 -229 13 -284 6 -22 -22 -188 -39 -231 -34 -87 655 -357 1250
-489 279 -63 776 -131 1220 -169 286 -25 516 21 895 179 142 58 197 90 424
238 442 289 473 307 528 298 47 -8 155 -50 268 -105 l85 -42 175 26 c392 58
625 126 746 218 l43 32 1 311 0 310 30 41 c35 47 58 110 100 268 52 196 65
299 64 530 -1 227 1 207 -88 740 -92 553 -110 742 -110 1155 1 168 6 391 13
495 22 340 81 1070 121 1510 22 237 43 462 47 501 5 68 4 72 -18 84 -64 35
-185 42 -764 45 -313 2 -673 -1 -800 -5z m-978 -226 l81 -6 11 -77 c73 -504
114 -1358 92 -1906 -21 -521 -58 -873 -126 -1222 -148 -747 -435 -1229 -827
-1388 -86 -35 -99 -31 -42 12 269 203 446 498 579 963 201 701 239 1836 104
3070 -19 179 -64 500 -76 549 -6 23 -5 24 58 18 35 -4 101 -9 146 -13z m-2410
-4974 c54 -33 59 -54 23 -100 -75 -94 -217 -203 -307 -236 -87 -31 -164 -7
-176 53 -19 96 114 240 268 289 63 20 154 17 192 -6z"/>
</g>
</svg>
